<?xml version="1.0" encoding="UTF-8" standalone="no"?>
<!DOCTYPE svg PUBLIC "-//W3C//DTD SVG 1.1//EN" "http://www.w3.org/Graphics/SVG/1.1/DTD/svg11.dtd">
<svg width="100%" height="100%" viewBox="0 0 2048 2048" version="1.1" xmlns="http://www.w3.org/2000/svg" xmlns:xlink="http://www.w3.org/1999/xlink" xml:space="preserve" xmlns:serif="http://www.serif.com/" style="fill-rule:evenodd;clip-rule:evenodd;stroke-linecap:round;stroke-linejoin:round;stroke-miterlimit:1.5;">
    <g transform="matrix(0.968125,0.250469,-0.250469,0.968125,244.396,-162.86)">
        <path d="M1027.21,93.157C557.933,93.157 176.94,474.15 176.94,943.426C176.94,1412.7 557.933,1793.69 1027.21,1793.69C1496.49,1793.69 1877.48,1412.7 1877.48,943.426" style="fill:none;stroke:rgb(245,121,121);stroke-width:91.45px;"/>
    </g>
    <g transform="matrix(0.716733,0.154227,-0.089582,0.416311,692.529,568.408)">
        <path d="M1699.88,554.417L1806.49,839.654L1593.28,839.654L1699.88,554.417Z" style="fill:rgb(245,121,121);stroke:rgb(245,121,121);stroke-width:152.54px;"/>
    </g>
    <path d="M1002.56,348.851C1366.24,348.851 1661.49,644.106 1661.49,1007.78C1661.49,1371.45 1366.24,1666.7 1002.56,1666.7C638.893,1666.7 343.637,1371.45 343.637,1007.78C343.637,644.106 638.893,348.851 1002.56,348.851ZM1249.6,1142.09C1249.6,1142.09 1261.37,1149.8 1273.54,1149.8C1275.57,1149.8 1277.6,1149.4 1279.63,1148.99L1451.27,879.156C1451.27,879.156 1439.91,871.446 1427.33,871.446C1425.3,871.446 1423.27,871.852 1421.24,872.258L1249.6,1142.09ZM1213.49,1015.9C1213.49,950.571 1176.16,870.635 1098.25,870.635C1020.34,870.635 982.607,950.571 982.607,1015.9C982.607,1118.96 1045.5,1147.77 1098.25,1147.77C1149.38,1147.77 1213.49,1118.96 1213.49,1015.9ZM958.261,1015.9C958.261,950.571 920.93,870.635 843.022,870.635C765.115,870.635 727.379,950.571 727.379,1015.9C727.379,1118.96 790.273,1147.77 843.022,1147.77C894.149,1147.77 958.261,1118.96 958.261,1015.9ZM701.004,1140.47C703.032,1140.47 703.032,1127.49 703.032,1125.05C703.032,1108.01 701.004,1099.49 701.004,1099.49C700.192,1098.68 696.946,1098.68 692.888,1098.68C686.802,1098.68 679.904,1099.08 679.904,1099.08C678.281,1097.46 677.875,1079.61 677.875,1054.45C677.875,1008.19 679.498,937.586 679.498,897.821C679.498,880.373 679.092,869.011 678.281,868.2C678.281,867.794 677.875,867.794 677.063,867.794C666.108,867.794 596.721,893.763 591.04,899.444C589.417,901.067 587.388,914.863 587.388,928.659C587.388,931.5 587.388,933.934 588.2,933.934C589.417,933.934 615.386,927.848 624.313,927.848C625.936,927.848 626.748,927.848 627.154,928.254C629.183,930.282 629.994,945.702 629.994,967.207C629.994,1000.48 628.371,1048.77 628.371,1081.63C628.371,1089.75 628.371,1097.05 628.777,1102.73C628.777,1102.73 613.358,1104.36 612.14,1105.57C610.517,1107.2 609.706,1118.96 609.706,1129.11C609.706,1137.63 610.111,1145.34 611.735,1146.56C611.735,1146.56 651.094,1140.47 690.859,1140.47L701.004,1140.47ZM1464.66,1086.1C1464.66,1056.48 1447.62,1020.77 1412.32,1020.77C1377.42,1020.77 1360.38,1056.48 1360.38,1086.1C1360.38,1135.6 1388.78,1145.34 1412.32,1145.34C1435.44,1145.34 1464.66,1132.36 1464.66,1086.1ZM1412.32,1121.81C1396.9,1121.81 1387.97,1109.63 1387.97,1086.91C1387.97,1061.35 1398.92,1045.12 1412.32,1045.12C1426.11,1045.12 1437.07,1061.35 1437.07,1086.91C1437.07,1109.63 1427.74,1121.81 1412.32,1121.81ZM1098.25,1106.39C1059.3,1106.39 1036.57,1076.36 1036.57,1019.15C1036.57,954.223 1064.17,913.24 1098.25,913.24C1132.34,913.24 1159.93,954.223 1159.93,1019.15C1159.93,1076.36 1137.2,1106.39 1098.25,1106.39ZM843.022,1106.39C804.069,1106.39 781.346,1076.36 781.346,1019.15C781.346,954.223 808.938,913.24 843.022,913.24C877.107,913.24 904.699,954.223 904.699,1019.15C904.699,1076.36 881.976,1106.39 843.022,1106.39ZM1341.71,937.181C1341.71,907.559 1324.67,871.852 1289.77,871.852C1254.47,871.852 1237.84,907.559 1237.84,937.181C1237.84,986.279 1265.83,996.423 1289.77,996.423C1312.5,996.423 1341.71,983.438 1341.71,937.181ZM1289.77,972.888C1274.35,972.888 1265.43,960.715 1265.43,937.992C1265.43,912.429 1276.38,896.198 1289.77,896.198C1303.16,896.198 1314.12,912.429 1314.12,937.992C1314.12,960.715 1305.19,972.888 1289.77,972.888Z" style="fill:url(#_Linear1);"/>
    <defs>
        <linearGradient id="_Linear1" x1="0" y1="0" x2="1" y2="0" gradientUnits="userSpaceOnUse" gradientTransform="matrix(68.7022,1647.39,-1647.39,68.7022,972.754,422.397)"><stop offset="0" style="stop-color:rgb(53,194,125);stop-opacity:1"/><stop offset="1" style="stop-color:rgb(13,133,75);stop-opacity:1"/></linearGradient>
    </defs>
</svg>
