<?xml version="1.0" encoding="UTF-8" standalone="no"?>
<!DOCTYPE svg PUBLIC "-//W3C//DTD SVG 1.1//EN" "http://www.w3.org/Graphics/SVG/1.1/DTD/svg11.dtd">
<svg width="100%" height="100%" viewBox="0 0 2048 2048" version="1.1" xmlns="http://www.w3.org/2000/svg" xmlns:xlink="http://www.w3.org/1999/xlink" xml:space="preserve" xmlns:serif="http://www.serif.com/" style="fill-rule:evenodd;clip-rule:evenodd;stroke-linecap:round;stroke-linejoin:round;stroke-miterlimit:1.5;">
    <g transform="matrix(1.1319,0,0,1.1319,-141.381,-108.641)">
        <circle cx="1023.61" cy="996.878" r="718.428" style="fill:rgb(183,149,217);"/>
    </g>
    <g transform="matrix(0.958544,0.284943,-0.284943,0.958544,197.913,-61.4908)">
        <g transform="matrix(1,0,0,0.89317,-16.6825,-197.102)">
            <rect x="233.586" y="532.432" width="720.631" height="973.825" style="fill:url(#_Linear1);"/>
        </g>
        <g transform="matrix(1,0,0,1,-1.7336,260.933)">
            <path d="M306.912,695.311L850.993,696.427" style="fill:none;stroke:rgb(0,93,142);stroke-width:27.63px;"/>
        </g>
        <g transform="matrix(1,0,0,1,-1.7336,68.936)">
            <path d="M306.912,695.311L850.993,696.427" style="fill:none;stroke:rgb(0,93,142);stroke-width:27.63px;"/>
        </g>
        <g transform="matrix(1,0,0,1,-1.7336,-123.061)">
            <path d="M306.912,695.311L850.993,696.427" style="fill:none;stroke:rgb(0,93,142);stroke-width:27.63px;"/>
        </g>
        <g transform="matrix(1,0,0,1,-1.7336,260.933)">
            <path d="M306.912,695.311L850.993,696.427" style="fill:none;stroke:rgb(0,93,142);stroke-width:27.63px;"/>
        </g>
        <g transform="matrix(1,0,0,1,-1.7336,68.936)">
            <path d="M306.912,695.311L850.993,696.427" style="fill:none;stroke:rgb(0,93,142);stroke-width:27.63px;"/>
        </g>
        <g transform="matrix(1,0,0,1,-1.7336,-123.061)">
            <path d="M306.912,695.311L850.993,696.427" style="fill:none;stroke:rgb(0,93,142);stroke-width:27.63px;"/>
        </g>
        <g transform="matrix(1,0,0,1,-1.7336,260.933)">
            <path d="M306.912,695.311L850.993,696.427" style="fill:none;stroke:rgb(0,93,142);stroke-width:27.63px;"/>
        </g>
        <g transform="matrix(1,0,0,1,-1.7336,68.936)">
            <path d="M306.912,695.311L850.993,696.427" style="fill:none;stroke:rgb(0,93,142);stroke-width:27.63px;"/>
        </g>
        <g transform="matrix(1,0,0,1,-1.7336,-123.061)">
            <path d="M306.912,695.311L850.993,696.427" style="fill:none;stroke:rgb(0,93,142);stroke-width:27.63px;"/>
        </g>
        <g transform="matrix(1,0,0,1,-1.7336,164.935)">
            <path d="M306.912,695.311L850.993,696.427" style="fill:none;stroke:rgb(0,93,142);stroke-width:27.63px;"/>
        </g>
        <g transform="matrix(1,0,0,1,-1.7336,-27.0626)">
            <path d="M306.912,695.311L850.993,696.427" style="fill:none;stroke:rgb(0,93,142);stroke-width:27.63px;"/>
        </g>
        <g transform="matrix(1,0,0,1,-1.7336,-219.06)">
            <path d="M306.912,695.311L850.993,696.427" style="fill:none;stroke:rgb(0,93,142);stroke-width:27.63px;"/>
        </g>
    </g>
    <g transform="matrix(0.91654,-0.399944,0.399944,0.91654,638.506,1002.03)">
        <g transform="matrix(1,0,0,0.89317,-16.6825,-197.102)">
            <rect x="233.586" y="532.432" width="720.631" height="973.825" style="fill:url(#_Linear2);"/>
        </g>
        <g transform="matrix(1,0,0,1,-1.7336,260.933)">
            <path d="M306.912,695.311L850.993,696.427" style="fill:none;stroke:rgb(0,93,142);stroke-width:27.63px;"/>
        </g>
        <g transform="matrix(1,0,0,1,-1.7336,68.936)">
            <path d="M306.912,695.311L850.993,696.427" style="fill:none;stroke:rgb(0,93,142);stroke-width:27.63px;"/>
        </g>
        <g transform="matrix(1,0,0,1,-1.7336,-123.061)">
            <path d="M306.912,695.311L850.993,696.427" style="fill:none;stroke:rgb(0,93,142);stroke-width:27.63px;"/>
        </g>
        <g transform="matrix(1,0,0,1,-1.7336,260.933)">
            <path d="M306.912,695.311L850.993,696.427" style="fill:none;stroke:rgb(0,93,142);stroke-width:27.63px;"/>
        </g>
        <g transform="matrix(1,0,0,1,-1.7336,68.936)">
            <path d="M306.912,695.311L850.993,696.427" style="fill:none;stroke:rgb(0,93,142);stroke-width:27.63px;"/>
        </g>
        <g transform="matrix(1,0,0,1,-1.7336,-123.061)">
            <path d="M306.912,695.311L850.993,696.427" style="fill:none;stroke:rgb(0,93,142);stroke-width:27.63px;"/>
        </g>
        <g transform="matrix(1,0,0,1,-1.7336,260.933)">
            <path d="M306.912,695.311L850.993,696.427" style="fill:none;stroke:rgb(0,93,142);stroke-width:27.63px;"/>
        </g>
        <g transform="matrix(1,0,0,1,-1.7336,68.936)">
            <path d="M306.912,695.311L850.993,696.427" style="fill:none;stroke:rgb(0,93,142);stroke-width:27.63px;"/>
        </g>
        <g transform="matrix(1,0,0,1,-1.7336,-123.061)">
            <path d="M306.912,695.311L850.993,696.427" style="fill:none;stroke:rgb(0,93,142);stroke-width:27.63px;"/>
        </g>
        <g transform="matrix(1,0,0,1,-1.7336,164.935)">
            <path d="M306.912,695.311L850.993,696.427" style="fill:none;stroke:rgb(0,93,142);stroke-width:27.63px;"/>
        </g>
        <g transform="matrix(1,0,0,1,-1.7336,-27.0626)">
            <path d="M306.912,695.311L850.993,696.427" style="fill:none;stroke:rgb(0,93,142);stroke-width:27.63px;"/>
        </g>
        <g transform="matrix(1,0,0,1,-1.7336,-219.06)">
            <path d="M306.912,695.311L850.993,696.427" style="fill:none;stroke:rgb(0,93,142);stroke-width:27.63px;"/>
        </g>
    </g>
    <defs>
        <linearGradient id="_Linear1" x1="0" y1="0" x2="1" y2="0" gradientUnits="userSpaceOnUse" gradientTransform="matrix(-3.03318,1130.78,-1009.98,-3.39598,559.191,589.185)"><stop offset="0" style="stop-color:rgb(239,218,104);stop-opacity:1"/><stop offset="1" style="stop-color:rgb(223,188,0);stop-opacity:1"/></linearGradient>
        <linearGradient id="_Linear2" x1="0" y1="0" x2="1" y2="0" gradientUnits="userSpaceOnUse" gradientTransform="matrix(-3.03318,1130.78,-1009.98,-3.39598,559.191,589.185)"><stop offset="0" style="stop-color:rgb(239,218,104);stop-opacity:1"/><stop offset="1" style="stop-color:rgb(223,188,0);stop-opacity:1"/></linearGradient>
    </defs>
</svg>
