<?xml version="1.0" encoding="UTF-8" standalone="no"?>
<!DOCTYPE svg PUBLIC "-//W3C//DTD SVG 1.1//EN" "http://www.w3.org/Graphics/SVG/1.1/DTD/svg11.dtd">
<svg width="100%" height="100%" viewBox="0 0 2732 2048" version="1.1" xmlns="http://www.w3.org/2000/svg" xmlns:xlink="http://www.w3.org/1999/xlink" xml:space="preserve" xmlns:serif="http://www.serif.com/" style="fill-rule:evenodd;clip-rule:evenodd;stroke-linecap:round;stroke-linejoin:round;stroke-miterlimit:9.67105;">
    <g transform="matrix(31.9392,0,0,27.6879,-26410.5,-19174.8)">
        <path d="M867.103,750.773L867.103,749.549C867.103,746.645 865.423,745.277 861.775,745.277C860.623,745.277 860.119,745.421 860.095,745.445C859.831,745.733 859.255,746.933 859.255,747.629L859.279,747.629C859.567,747.581 860.383,747.533 861.031,747.533C863.119,747.533 864.007,748.013 864.007,748.709C864.007,748.709 863.983,748.733 863.959,748.733C863.479,748.733 857.935,749.285 857.935,753.485C857.935,755.525 859.255,756.653 861.415,756.653C863.191,756.653 864.463,755.645 864.463,755.645C864.463,755.645 864.511,755.597 864.535,755.597C864.559,755.597 864.559,755.645 864.559,755.645C864.703,756.941 865.231,757.493 865.327,757.493C866.455,757.493 867.991,756.461 867.991,756.173C867.655,755.861 867.343,755.429 867.175,754.277C867.103,753.773 867.103,751.973 867.103,750.773ZM864.439,752.309C864.439,753.893 862.999,754.205 862.375,754.205C861.295,754.205 860.887,753.629 860.887,753.029C860.887,751.301 863.551,750.869 864.415,750.869C864.439,750.869 864.439,751.109 864.439,751.397L864.439,752.309Z" style="fill-rule:nonzero;"/>
        <path d="M872.287,746.213C872.287,744.413 872.359,740.333 872.407,739.973C872.407,739.925 872.023,739.877 871.807,739.877C870.943,739.877 869.551,740.405 869.551,740.741C869.551,741.005 869.647,741.605 869.647,744.029C869.647,747.845 869.551,750.269 869.551,752.717C869.551,753.893 869.551,754.853 869.575,755.237C869.719,756.725 870.223,757.349 870.319,757.349C871.327,757.349 872.983,756.341 872.983,756.053C872.695,755.621 872.407,755.141 872.287,754.133C872.239,753.749 872.239,753.005 872.239,752.093C872.239,749.813 872.287,748.013 872.287,746.213Z" style="fill-rule:nonzero;"/>
        <path d="M877.639,746.213C877.639,744.413 877.711,740.333 877.759,739.973C877.759,739.925 877.375,739.877 877.159,739.877C876.295,739.877 874.903,740.405 874.903,740.741C874.903,741.005 874.999,741.605 874.999,744.029C874.999,747.845 874.903,750.269 874.903,752.717C874.903,753.893 874.903,754.853 874.927,755.237C875.071,756.725 875.575,757.349 875.671,757.349C876.679,757.349 878.335,756.341 878.335,756.053C878.047,755.621 877.759,755.141 877.639,754.133C877.591,753.749 877.591,753.005 877.591,752.093C877.591,749.813 877.639,748.013 877.639,746.213Z" style="fill-rule:nonzero;"/>
        <path d="M885.799,748.493C885.799,750.101 883.687,751.541 882.679,751.565C882.583,751.565 882.583,751.493 882.583,751.229C882.583,749.333 883.759,747.797 885.055,747.797C885.415,747.797 885.799,747.989 885.799,748.493ZM884.743,756.677C887.071,756.677 887.887,756.125 887.887,756.125C888.343,755.549 888.487,754.541 888.487,753.965C888.487,753.821 888.463,753.509 888.415,753.509C888.391,753.509 888.367,753.533 888.367,753.533C887.623,753.989 886.519,754.181 885.487,754.181C884.239,754.181 883.735,753.677 883.735,753.533C886.807,752.477 888.607,750.293 888.607,748.253C888.607,746.117 886.711,745.637 885.583,745.637C881.695,745.637 879.775,748.493 879.775,751.613C879.775,754.421 881.383,756.677 884.743,756.677Z" style="fill-rule:nonzero;"/>
        <path d="M893.455,740.405C893.455,740.357 893.071,740.309 892.855,740.309C891.991,740.309 890.551,740.837 890.551,741.173C890.551,741.437 890.671,741.653 890.695,743.453C889.951,743.477 889.423,743.501 889.423,743.501C889.279,743.621 889.207,744.269 889.207,744.821C889.207,745.229 889.255,745.589 889.327,745.661C889.327,745.661 889.927,745.637 890.671,745.637C890.647,746.597 890.599,750.221 890.599,752.813C890.599,754.013 890.599,754.997 890.647,755.381C890.791,756.869 891.559,757.637 891.655,757.637C892.855,757.637 894.319,756.653 894.319,756.365C893.959,756.029 893.455,755.381 893.335,754.325C893.287,753.821 893.263,752.549 893.263,750.941C893.263,749.333 893.287,747.365 893.311,745.589L894.439,745.589C894.703,745.589 895.135,744.653 895.135,743.501C895.135,743.453 894.319,743.429 893.335,743.429C893.383,741.893 893.431,740.717 893.455,740.405Z" style="fill-rule:nonzero;"/>
    </g>
    <g transform="matrix(36.8475,0,0,25.7945,-30339.3,-17090)">
        <path d="M882.469,690.456C882.469,689.448 881.845,688.848 880.981,688.848C880.117,688.848 879.277,689.64 879.277,690.456C879.277,691.512 879.853,692.088 880.741,692.088C881.605,692.088 882.469,691.32 882.469,690.456ZM881.557,693.456C880.165,693.456 879.613,693.888 879.613,693.888C879.517,694.08 879.445,697.728 879.445,700.2C879.445,701.184 879.469,701.976 879.493,702.288C879.637,703.776 880.117,704.4 880.213,704.4C881.221,704.4 882.877,703.392 882.877,703.104C882.589,702.672 882.349,702.192 882.229,701.184C882.181,700.776 882.157,699.816 882.157,698.712C882.157,696.504 882.229,693.72 882.229,693.6C882.109,693.456 881.557,693.456 881.557,693.456Z" style="fill-rule:nonzero;"/>
        <path d="M892.765,703.296C893.101,702.96 893.149,701.832 893.149,701.304L893.149,701.04C892.933,700.8 889.549,700.536 888.493,700.536C888.493,699.984 891.181,696.12 893.005,694.752C893.005,693.48 892.549,692.808 892.549,692.808C892.381,692.64 889.789,692.328 887.725,692.328C885.997,692.328 885.205,692.496 885.157,692.544C885.037,692.664 884.629,693.48 884.629,694.704C884.845,694.68 885.277,694.68 885.709,694.68C887.029,694.68 888.637,694.872 888.949,695.064C889.021,695.112 888.997,695.16 888.973,695.184C887.941,696.168 884.437,700.56 884.077,701.808C884.077,702.48 884.533,703.656 884.797,703.656C884.797,703.656 887.173,703.224 890.125,703.224C890.989,703.224 891.853,703.224 892.765,703.296Z" style="fill-rule:nonzero;"/>
    </g>
    <g transform="matrix(23.5768,0,0,23.5768,-19247.5,-16286)">
        <path d="M823.852,739.946L836.111,767.677L844.115,750.863L851.547,762.562L870.067,715.562L879.829,737.782L887.832,720.969L895.264,732.667L906.634,704.984" style="fill:none;stroke:rgb(4,156,23);stroke-width:4.37px;"/>
    </g>
    <g transform="matrix(-8.96637,3.95085,-3.92565,-9.26556,14237.9,2914.61)">
        <path d="M1025.26,722.631L1024.92,722.314L1024.82,721.989L1024.82,721.988L1029.84,706.767L1029.84,706.766L1030.14,706.164L1030.56,705.68L1031.04,705.365L1031.55,705.266L1031.55,705.267L1032.04,705.42L1032.5,705.788L1032.87,706.315L1033.11,706.947L1036.78,722.65L1036.78,722.651L1036.65,722.963L1036.29,723.241L1035.72,723.481L1034.98,723.676L1033.06,723.913L1030.73,723.91L1030.73,723.909L1028.41,723.655L1026.53,723.208L1025.8,722.932L1025.26,722.631Z" style="fill:rgb(4,156,23);"/>
    </g>
    <g transform="matrix(-9.75192,0.768413,-0.840557,-10.0434,12652.9,6663.23)">
        <path d="M1017.85,717.79L1017.35,717.432L1016.8,716.904L1015.63,715.409L1014.47,713.452L1014.47,713.45L1013.54,711.379L1013,709.574L1012.88,708.832L1012.88,708.229L1013,707.791L1013.24,707.54L1013.24,707.54L1030.72,703.67L1030.72,703.67L1031.4,703.612L1032.04,703.724L1032.57,703.983L1032.91,704.366L1032.92,704.368L1033.03,704.864L1032.93,705.433L1032.64,706.004L1032.19,706.505L1032.19,706.506L1018.63,717.919L1018.63,717.92L1018.28,717.958L1017.85,717.79Z" style="fill:rgb(4,156,23);"/>
    </g>
    <g transform="matrix(4.80379,-4.91573,4.25981,4.40797,-5756.8,2122.1)">
        <path d="M1033.56,704.046L1033.57,704.049L1033.67,704.792L1033.5,705.689L1033.07,706.626L1032.44,707.487L1032.44,707.488L1019.55,721.516L1019.55,721.517L1019.06,721.546L1018.45,721.227L1017.75,720.591L1017,719.67L1015.39,717.1L1013.82,713.772L1013.82,713.769L1012.58,710.277L1011.88,707.259L1011.75,706.03L1011.78,705.041L1011.96,704.332L1012.31,703.944L1012.31,703.943L1030.46,702.688L1030.46,702.687L1031.47,702.742L1032.39,703.016L1033.12,703.466L1033.56,704.046Z" style="fill:rgb(4,156,23);"/>
    </g>
</svg>
