<?xml version="1.0" encoding="UTF-8" standalone="no"?>
<!DOCTYPE svg PUBLIC "-//W3C//DTD SVG 1.1//EN" "http://www.w3.org/Graphics/SVG/1.1/DTD/svg11.dtd">
<svg width="100%" height="100%" viewBox="0 0 2048 2048" version="1.1" xmlns="http://www.w3.org/2000/svg" xmlns:xlink="http://www.w3.org/1999/xlink" xml:space="preserve" xmlns:serif="http://www.serif.com/" style="fill-rule:evenodd;clip-rule:evenodd;stroke-linecap:round;stroke-linejoin:round;stroke-miterlimit:9.67105;">
    <g transform="matrix(1.21121,0,0,1.21121,-205.425,-309.909)">
        <circle cx="1015.48" cy="1096.94" r="787.504" style="fill:rgb(4,156,23);"/>
    </g>
    <g transform="matrix(28.5565,0,0,28.5565,-24408.5,-19501)">
        <path d="M870.067,715.562L879.829,737.782L887.832,720.969L895.264,732.667L906.634,704.984" style="fill:none;stroke:white;stroke-width:4.37px;"/>
    </g>
    <g transform="matrix(-10.8602,4.78533,-4.7548,-11.2226,16149.5,3755.03)">
        <path d="M1025.26,722.631L1024.92,722.314L1024.82,721.988L1024.82,721.988L1029.84,706.767L1029.84,706.766L1030.14,706.164L1030.56,705.68L1031.04,705.365L1031.55,705.267L1031.55,705.267L1032.04,705.42L1032.5,705.788L1032.87,706.315L1033.11,706.947L1036.78,722.65L1036.78,722.651L1036.65,722.963L1036.29,723.241L1035.72,723.481L1034.98,723.676L1034.08,723.822L1033.06,723.913L1031.93,723.944L1030.73,723.91L1030.73,723.909L1029.53,723.81L1028.41,723.655L1027.4,723.452L1026.53,723.208L1025.8,722.932L1025.26,722.631Z" style="fill:white;"/>
    </g>
    <g transform="matrix(-11.8117,0.930714,-1.0181,-12.1647,14229.8,8295.41)">
        <path d="M1017.85,717.79L1017.35,717.432L1016.8,716.904L1016.22,716.224L1015.63,715.409L1015.04,714.479L1014.47,713.451L1014.47,713.45L1013.96,712.394L1013.54,711.379L1013.22,710.431L1013,709.574L1012.88,708.832L1012.88,708.229L1013,707.791L1013.24,707.54L1013.24,707.54L1030.72,703.67L1030.72,703.67L1031.4,703.612L1032.04,703.724L1032.57,703.983L1032.91,704.366L1032.92,704.368L1033.03,704.864L1032.93,705.433L1032.64,706.004L1032.19,706.505L1032.19,706.506L1018.63,717.919L1018.63,717.92L1018.28,717.958L1017.85,717.79Z" style="fill:white;"/>
    </g>
    <g transform="matrix(5.81842,-5.95401,5.15954,5.33899,-8068.34,2795.13)">
        <path d="M1033.56,704.046L1033.57,704.048L1033.67,704.792L1033.5,705.689L1033.07,706.626L1032.44,707.487L1032.44,707.488L1019.55,721.516L1019.55,721.517L1019.06,721.546L1018.45,721.227L1017.75,720.591L1017,719.67L1016.2,718.496L1015.39,717.1L1014.59,715.514L1013.82,713.772L1013.82,713.769L1013.14,711.984L1012.58,710.277L1012.16,708.688L1011.88,707.259L1011.75,706.03L1011.78,705.041L1011.96,704.332L1012.31,703.944L1012.31,703.943L1030.46,702.688L1030.46,702.687L1031.47,702.742L1032.39,703.016L1033.12,703.466L1033.56,704.046Z" style="fill:white;"/>
    </g>
</svg>
